<svg xmlns="http://www.w3.org/2000/svg" aria-hidden="true" style="position:absolute;width:0;height:0;overflow:hidden">
  <defs>
    <symbol id="icon-Frame-52" viewBox="0 0 32 32">
      <path d="M19.52 4.64c0.24 0 0.48 0 0.96 0v3.6c-0.24 0-0.72 0-1.2 0s-0.96 0-1.2 0.24c-0.24 0.24-0.24 0.48-0.24 1.040 0 0.48 0 0.8 0 1.28h2.64v3.040h-2.64v13.2h-4.080v-13.28h-2.16v-3.040h2.16v-1.040c0-1.76 0.24-3.040 0.72-3.6 0.72-1.040 2.16-1.52 4.32-1.52 0.24 0.080 0.48 0.080 0.72 0.080z"></path>
    </symbol>
    <symbol id="icon-Frame-60" viewBox="0 0 32 32">
      <path d="M24.24 6c-1.36-0.080-4.16-0.16-8.4-0.16h-0.56c-4.080 0-6.8 0.080-8.16 0.24-1.84 0.16-3.12 0.64-3.84 1.28-0.64 0.56-1.12 1.6-1.28 2.96-0.080 0.88-0.16 2.72-0.16 5.52v0.4c0 2.64 0.080 4.48 0.24 5.36 0.24 1.28 0.64 2.24 1.44 2.8 0.8 0.64 2.16 1.040 4.080 1.2 1.36 0.080 4.16 0.16 8.4 0.16h0.56c4.080 0 6.8-0.080 8.16-0.24 1.84-0.16 3.12-0.64 3.84-1.28 0.64-0.56 1.12-1.6 1.28-2.96 0.080-0.88 0.16-2.72 0.16-5.52v-0.4c0-2.64-0.080-4.48-0.24-5.36-0.24-1.28-0.64-2.24-1.44-2.8-0.8-0.64-2.16-1.040-4.080-1.2zM21.12 15.84l-8.8 5.28v-10.56l8.8 5.28z"></path>
    </symbol>
    <symbol id="icon-instagram" viewBox="0 0 32 32">
      <path d="M28.718 10.756c-0.016-1.074-0.215-2.14-0.596-3.145-0.667-1.716-2.024-3.073-3.743-3.737-0.994-0.373-2.044-0.573-3.108-0.596-1.367-0.061-1.801-0.078-5.273-0.078s-3.916 0-5.274 0.078c-1.062 0.023-2.112 0.223-3.106 0.596-1.719 0.664-3.078 2.021-3.743 3.737-0.374 0.992-0.576 2.041-0.596 3.101-0.061 1.367-0.080 1.8-0.080 5.265s0 3.909 0.080 5.265c0.021 1.061 0.222 2.109 0.596 3.104 0.667 1.715 2.024 3.071 3.744 3.735 0.989 0.386 2.040 0.604 3.106 0.639 1.369 0.061 1.803 0.079 5.274 0.079s3.917 0 5.274-0.079c1.062-0.021 2.113-0.221 3.108-0.595 1.719-0.666 3.076-2.022 3.743-3.737 0.374-0.993 0.574-2.041 0.596-3.104 0.061-1.365 0.079-1.798 0.079-5.265-0.003-3.466-0.003-3.906-0.082-5.264zM15.99 22.531c-3.631 0-6.572-2.937-6.572-6.561s2.941-6.561 6.572-6.561c3.628 0 6.572 2.936 6.572 6.561s-2.944 6.561-6.572 6.561zM22.824 10.696c-0.849 0-1.532-0.684-1.532-1.53s0.684-1.53 1.532-1.53c0.846 0 1.531 0.684 1.531 1.53s-0.685 1.53-1.531 1.53z"></path>
      <path d="M15.992 19.976c2.211 0 4.004-1.793 4.004-4.004s-1.793-4.004-4.004-4.004c-2.211 0-4.004 1.793-4.004 4.004s1.793 4.004 4.004 4.004z"></path>
    </symbol>
    <symbol id="icon-Vector-13" viewBox="0 0 4464 32">
      <path stroke-linejoin="miter" stroke-linecap="butt" stroke-miterlimit="4" stroke-width="16" d="M0 16h4464"></path>
    </symbol>
    <symbol id="icon-menu-open" viewBox="0 0 32 32">
      <path stroke-linejoin="round" stroke-linecap="round" stroke-miterlimit="4" stroke-width="2.4" d="M4 11.333h24M4 20.667h24"></path>
    </symbol>
    <symbol id="icon-x" viewBox="0 0 32 32">
      <path d="M8 6.8a1.2 1.2 0 0 0-.848 2.049l7.152 7.152-7.152 7.152a1.201 1.201 0 0 0 1.697 1.697l7.152-7.152 7.152 7.152a1.201 1.201 0 0 0 1.697-1.697l-7.152-7.152 7.152-7.152a1.201 1.201 0 0 0-.848-2.049 1.196 1.196 0 0 0-.848.352l-7.152 7.152L8.85 7.152a1.204 1.204 0 0 0-.848-.352z"/>
      <path d="M7.626 25.11c-.512-.183-.886-.773-.796-1.258.076-.414.043-.377 3.832-4.168 2.003-2.004 3.641-3.662 3.641-3.684s-1.646-1.689-3.659-3.705c-4.042-4.048-3.818-3.793-3.81-4.331.011-.775.797-1.317 1.553-1.073.212.069.398.247 3.918 3.761L16 14.341l3.695-3.689c3.52-3.515 3.705-3.693 3.918-3.761.769-.248 1.555.308 1.552 1.097-.002.524.182.316-3.826 4.327-2.003 2.004-3.641 3.662-3.641 3.684s1.639 1.68 3.641 3.684c4.008 4.01 3.825 3.803 3.826 4.327.003.79-.784 1.345-1.552 1.097-.212-.069-.398-.247-3.918-3.761L16 17.657l-3.695 3.689c-3.378 3.373-3.712 3.695-3.899 3.756a1.323 1.323 0 0 1-.78.008z"/>
    </symbol>
  </defs>
</svg>
